<svg xmlns="http://www.w3.org/2000/svg" width="38" height="36" viewBox="0 0 38 36" fill="none">
  <g clip-path="url(#clip0_51_291)">
    <path d="M30.0833 1.81848H7.91667C5.81781 1.8208 3.80563 2.59201 2.32151 3.96293C0.837396 5.33385 0.00251411 7.19256 0 9.13133L0 26.6822C0.00251411 28.621 0.837396 30.4797 2.32151 31.8506C3.80563 33.2215 5.81781 33.9927 7.91667 33.995H30.0833C32.1822 33.9927 34.1944 33.2215 35.6785 31.8506C37.1626 30.4797 37.9975 28.621 38 26.6822V9.13133C37.9975 7.19256 37.1626 5.33385 35.6785 3.96293C34.1944 2.59201 32.1822 1.8208 30.0833 1.81848ZM7.91667 4.74362H30.0833C31.0314 4.74535 31.9572 5.0091 32.7417 5.50095C33.5261 5.99279 34.1333 6.69023 34.485 7.50349L22.3598 18.7053C21.4675 19.5263 20.2594 19.9872 19 19.9872C17.7406 19.9872 16.5325 19.5263 15.6402 18.7053L3.515 7.50349C3.86674 6.69023 4.47389 5.99279 5.25833 5.50095C6.04276 5.0091 6.96859 4.74535 7.91667 4.74362ZM30.0833 31.0699H7.91667C6.65689 31.0699 5.44871 30.6076 4.55791 29.7848C3.66711 28.9619 3.16667 27.8459 3.16667 26.6822V11.3252L13.4013 20.7734C14.8875 22.1427 16.9009 22.9117 19 22.9117C21.0991 22.9117 23.1125 22.1427 24.5987 20.7734L34.8333 11.3252V26.6822C34.8333 27.8459 34.3329 28.9619 33.4421 29.7848C32.5513 30.6076 31.3431 31.0699 30.0833 31.0699Z" fill="white"/>
  </g>
  <defs>
    <clipPath id="clip0_51_291">
      <rect width="38" height="35.1017" fill="white" transform="translate(0 0.355957)"/>
    </clipPath>
  </defs>
</svg>