<svg xmlns="http://www.w3.org/2000/svg" width="38" height="36" viewBox="0 0 38 36" fill="none">
  <g clip-path="url(#clip0_51_321)">
    <path fill-rule="evenodd" clip-rule="evenodd" d="M19 0.788818C8.50725 0.788818 0 8.64575 0 18.3397C0 26.0942 5.4435 32.6729 12.9928 34.994C13.9428 35.1563 14.2912 34.6137 14.2912 34.1501C14.2912 33.7318 14.2738 32.3496 14.2658 30.8827C8.98067 31.9445 7.86442 28.8117 7.86442 28.8117C6.99992 26.7831 5.75542 26.2434 5.75542 26.2434C4.03117 25.1538 5.88525 25.1772 5.88525 25.1772C7.79317 25.3015 8.797 26.9864 8.797 26.9864C10.4912 29.6687 13.2414 28.8936 14.326 28.4446C14.497 27.3096 14.9894 26.5359 15.5325 26.0971C11.3129 25.654 6.87642 24.149 6.87642 17.4241C6.87642 15.5081 7.619 13.9417 8.835 12.7132C8.63708 12.27 7.98633 10.4857 9.01867 8.06803C9.01867 8.06803 10.6147 7.59708 14.2453 9.86699C15.7605 9.47795 17.385 9.28343 19 9.27612C20.615 9.28343 22.2411 9.47795 23.7595 9.86699C27.3853 7.59562 28.9798 8.06803 28.9798 8.06803C30.0137 10.4857 29.3629 12.27 29.1666 12.7132C30.3842 13.9417 31.122 15.5081 31.122 17.4241C31.122 24.1651 26.6776 25.6496 22.4469 26.084C23.1278 26.6281 23.7358 27.6972 23.7358 29.3338C23.7358 31.6827 23.7136 33.5723 23.7136 34.1501C23.7136 34.6166 24.0556 35.1651 25.0183 34.9925C32.5644 32.6685 38.0016 26.0928 38.0016 18.3411C38 8.64721 29.4928 0.788818 19 0.788818Z" fill="white"/>
    <path d="M7.19624 25.9889C7.15507 26.0766 7.00624 26.103 6.87008 26.043C6.73233 25.986 6.65474 25.866 6.69907 25.7797C6.74024 25.6905 6.88908 25.6657 7.02683 25.7256C7.16458 25.7812 7.24374 25.9011 7.19624 25.9889Z" fill="white"/>
    <path d="M7.96575 26.7817C7.8755 26.8592 7.69817 26.8226 7.57783 26.7012C7.45275 26.5784 7.43058 26.4146 7.52242 26.3371C7.61583 26.2595 7.78683 26.2961 7.91192 26.419C8.037 26.5404 8.06075 26.7027 7.96575 26.7817Z" fill="white"/>
    <path d="M8.71467 27.7923C8.5975 27.8669 8.4075 27.7967 8.29033 27.6416C8.17317 27.4851 8.17317 27.2979 8.2935 27.2234C8.41067 27.1488 8.59908 27.216 8.71783 27.3711C8.83342 27.529 8.83342 27.7162 8.71467 27.7923Z" fill="white"/>
    <path d="M9.74068 28.7692C9.63618 28.876 9.41452 28.8467 9.25302 28.7019C9.08677 28.5601 9.04085 28.3597 9.14535 28.2529C9.25143 28.1462 9.47468 28.1769 9.63777 28.3202C9.80243 28.4621 9.85152 28.6639 9.74068 28.7692Z" fill="white"/>
    <path d="M11.1577 29.3354C11.1118 29.4729 10.8981 29.5358 10.6827 29.4773C10.4674 29.4173 10.3265 29.2564 10.3708 29.1175C10.4152 28.9785 10.6305 28.9142 10.8474 28.9771C11.0612 29.0356 11.2021 29.1964 11.1577 29.3354Z" fill="white"/>
    <path d="M12.7126 29.4406C12.7173 29.5854 12.5353 29.7054 12.3088 29.7083C12.0824 29.7127 11.8972 29.5957 11.8956 29.4538C11.8956 29.3075 12.0745 29.1891 12.3009 29.1847C12.5273 29.1803 12.7126 29.2973 12.7126 29.4406Z" fill="white"/>
    <path d="M14.1598 29.214C14.1867 29.3544 14.0299 29.5007 13.8051 29.5387C13.585 29.5767 13.3808 29.489 13.3523 29.3485C13.3253 29.2038 13.4853 29.059 13.7053 29.0209C13.9286 28.9844 14.1313 29.0692 14.1598 29.214Z" fill="white"/>
  </g>
  <defs>
    <clipPath id="clip0_51_321">
      <rect width="38" height="35.1017" fill="white" transform="translate(0 0.355957)"/>
    </clipPath>
  </defs>
</svg>