<svg width="296" height="53" viewBox="0 0 296 53" fill="none" xmlns="http://www.w3.org/2000/svg">
<path d="M32.64 0.799998C33.4667 0.959998 34.08 1.24 34.48 1.64C34.9067 2.04 35.12 2.50667 35.12 3.04C35.12 3.92 34.8667 4.56 34.36 4.96C33.88 5.36 33.1067 5.52 32.04 5.44C29.64 5.25333 27.76 5.13333 26.4 5.08C25.0667 5 23.3067 4.94667 21.12 4.92C20.1333 9.82666 19.2267 14.76 18.4 19.72C18.1067 21.5333 17.8 23.64 17.48 26.04C17.16 28.4133 16.9467 30.3333 16.84 31.8C16.7867 32.5733 16.4667 33.1733 15.88 33.6C15.2933 34 14.5867 34.2 13.76 34.2C12.88 34.2 12.2 33.9867 11.72 33.56C11.24 33.1333 11 32.5733 11 31.88C11 31.24 11.0933 30.1867 11.28 28.72C11.4933 27.2267 11.7333 25.6667 12 24.04C12.2933 22.4133 12.52 21 12.68 19.8C12.9733 17.7733 13.3067 15.76 13.68 13.76C14.0533 11.76 14.4267 9.86667 14.8 8.08C14.88 7.68 14.9733 7.22666 15.08 6.72C15.1867 6.18667 15.3067 5.6 15.44 4.96C12.8267 5.04 10.7733 5.25333 9.28 5.6C7.78667 5.94667 6.72 6.44 6.08 7.08C5.46667 7.69333 5.16 8.49333 5.16 9.48C5.16 10.3867 5.42667 11.2533 5.96 12.08C6.06667 12.2667 6.12 12.4667 6.12 12.68C6.12 13.1867 5.81333 13.6667 5.2 14.12C4.61333 14.5467 4 14.76 3.36 14.76C2.90667 14.76 2.53333 14.6267 2.24 14.36C1.70667 13.9067 1.26667 13.2667 0.92 12.44C0.573333 11.5867 0.4 10.6267 0.4 9.56C0.4 7.29333 1.13333 5.48 2.6 4.12C4.09333 2.73333 6.34667 1.72 9.36 1.08C12.4 0.439998 16.2933 0.119998 21.04 0.119998C23.9733 0.119998 26.3067 0.173331 28.04 0.279998C29.8 0.386665 31.3333 0.559998 32.64 0.799998ZM32.8397 12.72C31.7197 12.72 30.8797 12.4667 30.3197 11.96C29.7597 11.4267 29.4797 10.6933 29.4797 9.76C29.4797 8.82667 29.8397 8.05333 30.5597 7.44C31.3064 6.8 32.2264 6.48 33.3197 6.48C34.3064 6.48 35.1064 6.72 35.7197 7.2C36.333 7.68 36.6397 8.36 36.6397 9.24C36.6397 10.3067 36.293 11.16 35.5997 11.8C34.9064 12.4133 33.9864 12.72 32.8397 12.72ZM32.5197 34.2C30.7864 34.2 29.5197 33.5867 28.7197 32.36C27.9464 31.1333 27.5597 29.5067 27.5597 27.48C27.5597 26.28 27.7064 24.7467 27.9997 22.88C28.3197 20.9867 28.7197 19.2267 29.1997 17.6C29.4397 16.7467 29.7597 16.16 30.1597 15.84C30.5597 15.52 31.1997 15.36 32.0797 15.36C33.4397 15.36 34.1197 15.8133 34.1197 16.72C34.1197 17.3867 33.8664 18.9333 33.3597 21.36C32.7197 24.2933 32.3997 26.28 32.3997 27.32C32.3997 28.12 32.5064 28.7333 32.7197 29.16C32.933 29.5867 33.293 29.8 33.7997 29.8C34.2797 29.8 34.8797 29.4667 35.5997 28.8C36.3197 28.1333 37.2797 27.08 38.4797 25.64C38.7997 25.2667 39.1597 25.08 39.5597 25.08C39.9064 25.08 40.173 25.24 40.3597 25.56C40.573 25.88 40.6797 26.32 40.6797 26.88C40.6797 27.9467 40.4264 28.7733 39.9197 29.36C37.2797 32.5867 34.813 34.2 32.5197 34.2ZM40.2834 34.2C39.2701 34.2 38.5501 33.6667 38.1234 32.6C37.7234 31.5333 37.5234 29.8267 37.5234 27.48C37.5234 24.0133 38.0168 20.72 39.0034 17.6C39.2434 16.8267 39.6301 16.2667 40.1634 15.92C40.7234 15.5467 41.4968 15.36 42.4834 15.36C43.0168 15.36 43.3901 15.4267 43.6034 15.56C43.8168 15.6933 43.9234 15.9467 43.9234 16.32C43.9234 16.7467 43.7234 17.7067 43.3234 19.2C43.0568 20.2667 42.8434 21.2 42.6834 22C42.5234 22.7733 42.3901 23.7467 42.2834 24.92C43.0034 22.84 43.8568 21.08 44.8434 19.64C45.8568 18.2 46.8834 17.1333 47.9234 16.44C48.9901 15.72 49.9901 15.36 50.9234 15.36C51.8568 15.36 52.5101 15.5733 52.8834 16C53.2834 16.4267 53.4834 17.08 53.4834 17.96C53.4834 18.8133 53.2301 20.36 52.7234 22.6C52.5101 23.56 52.3634 24.28 52.2834 24.76C53.6168 21.48 55.0968 19.0933 56.7234 17.6C58.3501 16.1067 59.8701 15.36 61.2834 15.36C63.0168 15.36 63.8834 16.2267 63.8834 17.96C63.8834 19 63.5901 20.88 63.0034 23.6C62.4968 25.92 62.2434 27.4533 62.2434 28.2C62.2434 29.2667 62.6301 29.8 63.4034 29.8C63.9368 29.8 64.5634 29.48 65.2834 28.84C66.0301 28.1733 67.0168 27.1067 68.2434 25.64C68.5634 25.2667 68.9234 25.08 69.3234 25.08C69.6701 25.08 69.9368 25.24 70.1234 25.56C70.3368 25.88 70.4434 26.32 70.4434 26.88C70.4434 27.9467 70.1901 28.7733 69.6834 29.36C68.5368 30.7733 67.2968 31.9333 65.9634 32.84C64.6568 33.7467 63.1634 34.2 61.4834 34.2C60.1234 34.2 59.0968 33.8133 58.4034 33.04C57.7101 32.24 57.3634 31.0933 57.3634 29.6C57.3634 28.8533 57.5501 27.52 57.9234 25.6C58.2701 23.92 58.4434 22.76 58.4434 22.12C58.4434 21.6933 58.2968 21.48 58.0034 21.48C57.6568 21.48 57.1634 21.9333 56.5234 22.84C55.8834 23.72 55.2434 24.8933 54.6034 26.36C53.9634 27.8267 53.4434 29.3733 53.0434 31C52.7501 32.28 52.4034 33.1333 52.0034 33.56C51.6301 33.9867 51.0168 34.2 50.1634 34.2C49.2834 34.2 48.6168 33.7867 48.1634 32.96C47.7368 32.1067 47.5234 31.08 47.5234 29.88C47.5234 28.8667 47.6568 27.4 47.9234 25.48C48.1368 23.7733 48.2434 22.6533 48.2434 22.12C48.2434 21.6933 48.0968 21.48 47.8034 21.48C47.4034 21.48 46.8968 21.96 46.2834 22.92C45.6701 23.88 45.0701 25.1067 44.4834 26.6C43.9234 28.0933 43.4701 29.56 43.1234 31C42.8301 32.2533 42.4834 33.1067 42.0834 33.56C41.7101 33.9867 41.1101 34.2 40.2834 34.2ZM81.5291 26.28C81.8757 26.28 82.1424 26.44 82.3291 26.76C82.5424 27.08 82.6491 27.52 82.6491 28.08C82.6491 29.04 82.4224 29.8667 81.9691 30.56C81.2224 31.7067 80.2357 32.6 79.0091 33.24C77.8091 33.88 76.3691 34.2 74.6891 34.2C72.1291 34.2 70.1424 33.44 68.7291 31.92C67.3157 30.3733 66.6091 28.2933 66.6091 25.68C66.6091 23.84 66.9957 22.1333 67.7691 20.56C68.5424 18.96 69.6091 17.6933 70.9691 16.76C72.3557 15.8267 73.9157 15.36 75.6491 15.36C77.1957 15.36 78.4357 15.8267 79.3691 16.76C80.3024 17.6667 80.7691 18.9067 80.7691 20.48C80.7691 22.32 80.1024 23.9067 78.7691 25.24C77.4624 26.5467 75.2224 27.5867 72.0491 28.36C72.6891 29.5867 73.7691 30.2 75.2891 30.2C76.3824 30.2 77.2757 29.9467 77.9691 29.44C78.6891 28.9333 79.5157 28.08 80.4491 26.88C80.7691 26.48 81.1291 26.28 81.5291 26.28ZM74.9691 19.28C73.9824 19.28 73.1424 19.8533 72.4491 21C71.7824 22.1467 71.4491 23.5333 71.4491 25.16V25.24C73.0224 24.8667 74.2624 24.3067 75.1691 23.56C76.0757 22.8133 76.5291 21.9467 76.5291 20.96C76.5291 20.4533 76.3824 20.0533 76.0891 19.76C75.8224 19.44 75.4491 19.28 74.9691 19.28ZM125.96 0.799998C126.787 0.959998 127.4 1.24 127.8 1.64C128.227 2.04 128.44 2.50667 128.44 3.04C128.44 3.92 128.187 4.56 127.68 4.96C127.2 5.36 126.427 5.52 125.36 5.44C122.96 5.25333 121.08 5.13333 119.72 5.08C118.387 5 116.627 4.94667 114.44 4.92C113.454 9.82666 112.547 14.76 111.72 19.72C111.427 21.5333 111.12 23.64 110.8 26.04C110.48 28.4133 110.267 30.3333 110.16 31.8C110.107 32.5733 109.787 33.1733 109.2 33.6C108.614 34 107.907 34.2 107.08 34.2C106.2 34.2 105.52 33.9867 105.04 33.56C104.56 33.1333 104.32 32.5733 104.32 31.88C104.32 31.24 104.414 30.1867 104.6 28.72C104.814 27.2267 105.054 25.6667 105.32 24.04C105.614 22.4133 105.84 21 106 19.8C106.294 17.7733 106.627 15.76 107 13.76C107.374 11.76 107.747 9.86667 108.12 8.08C108.2 7.68 108.294 7.22666 108.4 6.72C108.507 6.18667 108.627 5.6 108.76 4.96C106.147 5.04 104.094 5.25333 102.6 5.6C101.107 5.94667 100.04 6.44 99.4003 7.08C98.787 7.69333 98.4803 8.49333 98.4803 9.48C98.4803 10.3867 98.747 11.2533 99.2803 12.08C99.387 12.2667 99.4403 12.4667 99.4403 12.68C99.4403 13.1867 99.1336 13.6667 98.5203 14.12C97.9336 14.5467 97.3203 14.76 96.6803 14.76C96.227 14.76 95.8536 14.6267 95.5603 14.36C95.027 13.9067 94.587 13.2667 94.2403 12.44C93.8936 11.5867 93.7203 10.6267 93.7203 9.56C93.7203 7.29333 94.4536 5.48 95.9203 4.12C97.4136 2.73333 99.667 1.72 102.68 1.08C105.72 0.439998 109.614 0.119998 114.36 0.119998C117.294 0.119998 119.627 0.173331 121.36 0.279998C123.12 0.386665 124.654 0.559998 125.96 0.799998ZM125.297 34.2C123.724 34.2 122.377 33.8133 121.257 33.04C120.164 32.24 119.337 31.2 118.777 29.92C118.217 28.64 117.937 27.2667 117.937 25.8C117.937 23.7733 118.311 21.9733 119.057 20.4C119.831 18.8 120.871 17.56 122.177 16.68C123.484 15.7733 124.951 15.32 126.577 15.32C128.151 15.32 129.497 15.72 130.617 16.52C131.737 17.2933 132.577 18.32 133.137 19.6C133.697 20.88 133.977 22.2533 133.977 23.72C133.977 25.7467 133.591 27.56 132.817 29.16C132.044 30.7333 130.991 31.9733 129.657 32.88C128.351 33.76 126.897 34.2 125.297 34.2ZM125.737 29.88C126.644 29.88 127.404 29.3867 128.017 28.4C128.657 27.4133 128.977 25.9733 128.977 24.08C128.977 22.6133 128.711 21.5067 128.177 20.76C127.644 20.0133 127.004 19.64 126.257 19.64C125.297 19.64 124.497 20.1333 123.857 21.12C123.244 22.08 122.937 23.52 122.937 25.44C122.937 26.96 123.204 28.08 123.737 28.8C124.271 29.52 124.937 29.88 125.737 29.88ZM178.248 10.16C178.248 12.4267 177.661 14.5067 176.488 16.4C175.315 18.2933 173.608 19.84 171.368 21.04C169.128 22.24 166.461 22.9467 163.368 23.16L161.648 32.8C160.981 36.5067 159.168 38.36 156.208 38.36C154.581 38.36 153.075 37.88 151.688 36.92C150.328 35.96 149.235 34.4933 148.408 32.52C147.581 30.5467 147.168 28.12 147.168 25.24C147.168 19.8267 148.035 15.24 149.768 11.48C151.528 7.69333 153.875 4.86667 156.808 3C159.768 1.10667 163.021 0.159999 166.568 0.159999C169.075 0.159999 171.195 0.599999 172.928 1.48C174.688 2.36 176.008 3.56 176.888 5.08C177.795 6.57333 178.248 8.26666 178.248 10.16ZM164.088 19.04C169.555 18.3467 172.288 15.5067 172.288 10.52C172.288 8.76 171.701 7.33333 170.528 6.24C169.381 5.12 167.595 4.56 165.168 4.56C162.421 4.56 160.021 5.42666 157.968 7.16C155.941 8.89333 154.368 11.3067 153.248 14.4C152.155 17.4667 151.608 20.9733 151.608 24.92C151.608 26.5733 151.768 28.04 152.088 29.32C152.435 30.6 152.861 31.6 153.368 32.32C153.901 33.0133 154.408 33.36 154.888 33.36C155.555 33.36 156.061 32.44 156.408 30.6L157.728 23.04C156.688 22.88 156.235 22.8133 156.368 22.84C155.568 22.7067 155.048 22.4667 154.808 22.12C154.568 21.7467 154.448 21.28 154.448 20.72C154.448 20.1333 154.608 19.6667 154.928 19.32C155.275 18.9733 155.741 18.8 156.328 18.8C156.595 18.8 156.795 18.8133 156.928 18.84C157.568 18.9467 158.061 19.0133 158.408 19.04C158.755 16.96 159.248 14.1733 159.888 10.68C160.048 9.77333 160.408 9.13333 160.968 8.76C161.555 8.36 162.235 8.16 163.008 8.16C163.888 8.16 164.515 8.33333 164.888 8.68C165.288 9 165.488 9.52 165.488 10.24C165.488 10.6667 165.461 11.0133 165.408 11.28L164.088 19.04ZM179.893 34.2C178.879 34.2 178.159 33.6667 177.733 32.6C177.333 31.5333 177.133 29.8267 177.133 27.48C177.133 24.0133 177.626 20.72 178.613 17.6C178.853 16.8267 179.239 16.2667 179.773 15.92C180.333 15.5467 181.106 15.36 182.093 15.36C182.626 15.36 182.999 15.4267 183.213 15.56C183.426 15.6933 183.533 15.9467 183.533 16.32C183.533 16.7467 183.333 17.7067 182.933 19.2C182.666 20.2667 182.453 21.2 182.293 22C182.133 22.8 181.999 23.7867 181.893 24.96C182.773 22.6667 183.759 20.8 184.853 19.36C185.946 17.92 187.013 16.8933 188.053 16.28C189.119 15.6667 190.093 15.36 190.973 15.36C192.706 15.36 193.573 16.2267 193.573 17.96C193.573 18.3067 193.453 19.1467 193.213 20.48C192.999 21.5467 192.893 22.2133 192.893 22.48C192.893 23.4133 193.226 23.88 193.893 23.88C194.639 23.88 195.599 23.2933 196.773 22.12C197.119 21.7733 197.479 21.6 197.853 21.6C198.199 21.6 198.466 21.76 198.653 22.08C198.866 22.3733 198.973 22.7733 198.973 23.28C198.973 24.2667 198.706 25.04 198.173 25.6C197.426 26.3733 196.546 27.04 195.533 27.6C194.546 28.1333 193.493 28.4 192.373 28.4C190.959 28.4 189.879 28.04 189.133 27.32C188.413 26.6 188.053 25.6267 188.053 24.4C188.053 24 188.093 23.6 188.173 23.2C188.226 22.6667 188.253 22.3067 188.253 22.12C188.253 21.6933 188.106 21.48 187.813 21.48C187.413 21.48 186.879 21.9333 186.213 22.84C185.573 23.72 184.933 24.8933 184.293 26.36C183.653 27.8267 183.133 29.3733 182.733 31C182.439 32.2533 182.093 33.1067 181.693 33.56C181.319 33.9867 180.719 34.2 179.893 34.2ZM215.656 21.72C216.003 21.72 216.269 21.8933 216.456 22.24C216.643 22.5867 216.736 23.0267 216.736 23.56C216.736 24.84 216.349 25.6 215.576 25.84C213.976 26.4 212.216 26.72 210.296 26.8C209.789 29.04 208.789 30.84 207.296 32.2C205.803 33.5333 204.109 34.2 202.216 34.2C200.616 34.2 199.243 33.8133 198.096 33.04C196.976 32.2667 196.123 31.24 195.536 29.96C194.949 28.68 194.656 27.2933 194.656 25.8C194.656 23.7733 195.043 21.9733 195.816 20.4C196.589 18.8 197.656 17.56 199.016 16.68C200.376 15.7733 201.883 15.32 203.536 15.32C205.563 15.32 207.189 16.0267 208.416 17.44C209.669 18.8267 210.403 20.5467 210.616 22.6C211.869 22.52 213.363 22.2533 215.096 21.8C215.309 21.7467 215.496 21.72 215.656 21.72ZM202.536 29.96C203.389 29.96 204.123 29.6133 204.736 28.92C205.376 28.2267 205.803 27.2267 206.016 25.92C205.189 25.36 204.549 24.6267 204.096 23.72C203.669 22.8133 203.456 21.8533 203.456 20.84C203.456 20.4133 203.496 19.9867 203.576 19.56H203.376C202.309 19.56 201.416 20.08 200.696 21.12C200.003 22.1333 199.656 23.5733 199.656 25.44C199.656 26.9067 199.936 28.0267 200.496 28.8C201.083 29.5733 201.763 29.96 202.536 29.96ZM233.783 25.16C234.129 25.16 234.396 25.3333 234.583 25.68C234.796 26 234.903 26.4133 234.903 26.92C234.903 27.5333 234.809 28.0133 234.623 28.36C234.436 28.7067 234.143 29.0133 233.743 29.28C231.449 30.8267 229.769 31.9733 228.703 32.72L226.143 34.44C225.129 39.96 223.796 44.2933 222.143 47.44C220.516 50.6133 218.436 52.2 215.903 52.2C214.543 52.2 213.436 51.7733 212.583 50.92C211.729 50.0933 211.303 49 211.303 47.64C211.303 45.7467 212.049 43.7067 213.543 41.52C215.036 39.36 217.836 36.6933 221.943 33.52L222.183 31.96C221.729 32.68 221.129 33.24 220.383 33.64C219.663 34.0133 218.943 34.2 218.223 34.2C216.569 34.2 215.249 33.6 214.263 32.4C213.276 31.2 212.783 29.6267 212.783 27.68C212.783 25.5467 213.276 23.5333 214.263 21.64C215.249 19.72 216.556 18.1867 218.183 17.04C219.836 15.8667 221.583 15.28 223.423 15.28C224.009 15.28 224.396 15.4 224.583 15.64C224.796 15.8533 224.969 16.2533 225.103 16.84C225.609 16.7333 226.196 16.68 226.863 16.68C227.529 16.68 227.996 16.7867 228.263 17C228.556 17.1867 228.703 17.5733 228.703 18.16C228.703 18.48 228.689 18.7333 228.663 18.92C228.556 19.7467 228.223 21.84 227.663 25.2C227.556 25.84 227.436 26.5467 227.303 27.32C227.196 28.0667 227.076 28.8667 226.943 29.72C228.996 28.12 230.969 26.7067 232.863 25.48C233.209 25.2667 233.516 25.16 233.783 25.16ZM219.663 30.16C220.276 30.16 220.863 29.7867 221.423 29.04C221.983 28.2933 222.383 27.2267 222.623 25.84L223.903 19C222.809 19.0267 221.796 19.4533 220.863 20.28C219.929 21.08 219.183 22.1467 218.623 23.48C218.063 24.8133 217.783 26.2267 217.783 27.72C217.783 28.5467 217.943 29.16 218.263 29.56C218.609 29.96 219.076 30.16 219.663 30.16ZM216.343 48.32C217.009 48.32 217.756 47.52 218.583 45.92C219.436 44.32 220.249 41.7733 221.023 38.28C218.969 40.04 217.489 41.6267 216.583 43.04C215.676 44.4533 215.223 45.6933 215.223 46.76C215.223 47.2133 215.303 47.5867 215.463 47.88C215.649 48.1733 215.943 48.32 216.343 48.32ZM234.854 34.2C233.84 34.2 233.12 33.6667 232.694 32.6C232.294 31.5333 232.094 29.8267 232.094 27.48C232.094 24.0133 232.587 20.72 233.574 17.6C233.814 16.8267 234.2 16.2667 234.734 15.92C235.294 15.5467 236.067 15.36 237.054 15.36C237.587 15.36 237.96 15.4267 238.174 15.56C238.387 15.6933 238.494 15.9467 238.494 16.32C238.494 16.7467 238.294 17.7067 237.894 19.2C237.627 20.2667 237.414 21.2 237.254 22C237.094 22.8 236.96 23.7867 236.854 24.96C237.734 22.6667 238.72 20.8 239.814 19.36C240.907 17.92 241.974 16.8933 243.014 16.28C244.08 15.6667 245.054 15.36 245.934 15.36C247.667 15.36 248.534 16.2267 248.534 17.96C248.534 18.3067 248.414 19.1467 248.174 20.48C247.96 21.5467 247.854 22.2133 247.854 22.48C247.854 23.4133 248.187 23.88 248.854 23.88C249.6 23.88 250.56 23.2933 251.734 22.12C252.08 21.7733 252.44 21.6 252.814 21.6C253.16 21.6 253.427 21.76 253.614 22.08C253.827 22.3733 253.934 22.7733 253.934 23.28C253.934 24.2667 253.667 25.04 253.134 25.6C252.387 26.3733 251.507 27.04 250.494 27.6C249.507 28.1333 248.454 28.4 247.334 28.4C245.92 28.4 244.84 28.04 244.094 27.32C243.374 26.6 243.014 25.6267 243.014 24.4C243.014 24 243.054 23.6 243.134 23.2C243.187 22.6667 243.214 22.3067 243.214 22.12C243.214 21.6933 243.067 21.48 242.774 21.48C242.374 21.48 241.84 21.9333 241.174 22.84C240.534 23.72 239.894 24.8933 239.254 26.36C238.614 27.8267 238.094 29.3733 237.694 31C237.4 32.2533 237.054 33.1067 236.654 33.56C236.28 33.9867 235.68 34.2 234.854 34.2ZM255.137 34.2C253.484 34.2 252.164 33.6 251.177 32.4C250.19 31.2 249.697 29.6267 249.697 27.68C249.697 25.5467 250.19 23.5333 251.177 21.64C252.164 19.72 253.47 18.1867 255.097 17.04C256.75 15.8667 258.497 15.28 260.337 15.28C260.924 15.28 261.31 15.4 261.497 15.64C261.71 15.8533 261.884 16.2533 262.017 16.84C262.577 16.7333 263.164 16.68 263.777 16.68C265.084 16.68 265.737 17.1467 265.737 18.08C265.737 18.64 265.537 19.9733 265.137 22.08C264.524 25.1467 264.217 27.28 264.217 28.48C264.217 28.88 264.31 29.2 264.497 29.44C264.71 29.68 264.977 29.8 265.297 29.8C265.804 29.8 266.417 29.48 267.137 28.84C267.857 28.1733 268.83 27.1067 270.057 25.64C270.377 25.2667 270.737 25.08 271.137 25.08C271.484 25.08 271.75 25.24 271.937 25.56C272.15 25.88 272.257 26.32 272.257 26.88C272.257 27.9467 272.004 28.7733 271.497 29.36C270.404 30.72 269.244 31.8667 268.017 32.8C266.79 33.7333 265.604 34.2 264.457 34.2C263.577 34.2 262.764 33.9067 262.017 33.32C261.297 32.7067 260.75 31.88 260.377 30.84C258.99 33.08 257.244 34.2 255.137 34.2ZM256.577 30.16C257.164 30.16 257.724 29.8133 258.257 29.12C258.79 28.4267 259.177 27.5067 259.417 26.36L260.897 19C259.777 19.0267 258.737 19.4533 257.777 20.28C256.844 21.08 256.097 22.1467 255.537 23.48C254.977 24.8133 254.697 26.2267 254.697 27.72C254.697 28.5467 254.857 29.16 255.177 29.56C255.524 29.96 255.99 30.16 256.577 30.16ZM271.846 34.2C270.833 34.2 270.113 33.6667 269.686 32.6C269.286 31.5333 269.086 29.8267 269.086 27.48C269.086 24.0133 269.579 20.72 270.566 17.6C270.806 16.8267 271.193 16.2667 271.726 15.92C272.286 15.5467 273.059 15.36 274.046 15.36C274.579 15.36 274.953 15.4267 275.166 15.56C275.379 15.6933 275.486 15.9467 275.486 16.32C275.486 16.7467 275.286 17.7067 274.886 19.2C274.619 20.2667 274.406 21.2 274.246 22C274.086 22.7733 273.953 23.7467 273.846 24.92C274.566 22.84 275.419 21.08 276.406 19.64C277.419 18.2 278.446 17.1333 279.486 16.44C280.553 15.72 281.553 15.36 282.486 15.36C283.419 15.36 284.073 15.5733 284.446 16C284.846 16.4267 285.046 17.08 285.046 17.96C285.046 18.8133 284.793 20.36 284.286 22.6C284.073 23.56 283.926 24.28 283.846 24.76C284.726 22.52 285.699 20.6933 286.766 19.28C287.859 17.8667 288.926 16.8667 289.966 16.28C291.006 15.6667 291.966 15.36 292.846 15.36C293.699 15.36 294.339 15.5867 294.766 16.04C295.219 16.4667 295.446 17.1067 295.446 17.96C295.446 18.6533 295.299 19.96 295.006 21.88C294.739 23.5067 294.526 25.0533 294.366 26.52C294.206 27.96 294.126 29.5733 294.126 31.36C294.126 32.3733 293.913 33.1067 293.486 33.56C293.086 33.9867 292.419 34.2 291.486 34.2C290.606 34.2 289.966 33.9733 289.566 33.52C289.166 33.0667 288.966 32.3867 288.966 31.48C288.966 30.4133 289.153 28.6533 289.526 26.2C289.846 24.0667 290.006 22.7067 290.006 22.12C290.006 21.6933 289.859 21.48 289.566 21.48C289.219 21.48 288.726 21.9333 288.086 22.84C287.446 23.72 286.806 24.8933 286.166 26.36C285.526 27.8267 285.006 29.3733 284.606 31C284.313 32.28 283.966 33.1333 283.566 33.56C283.193 33.9867 282.579 34.2 281.726 34.2C280.846 34.2 280.179 33.7867 279.726 32.96C279.299 32.1067 279.086 31.08 279.086 29.88C279.086 28.8667 279.219 27.4 279.486 25.48C279.699 23.7733 279.806 22.6533 279.806 22.12C279.806 21.6933 279.659 21.48 279.366 21.48C278.966 21.48 278.459 21.96 277.846 22.92C277.233 23.88 276.633 25.1067 276.046 26.6C275.486 28.0933 275.033 29.56 274.686 31C274.393 32.2533 274.046 33.1067 273.646 33.56C273.273 33.9867 272.673 34.2 271.846 34.2Z" fill="white"/>
</svg>
